<svg width="15" height="15" viewBox="0 0 15 15" fill="none" xmlns="http://www.w3.org/2000/svg">
<path d="M7.49979 1.2523e-08C8.96926 -8.48879e-05 10.4064 0.431522 11.6327 1.24121C12.8589 2.05091 13.8203 3.203 14.3974 4.55441C14.9745 5.90582 15.1419 7.39699 14.8788 8.84272C14.6157 10.2884 13.9336 11.625 12.9174 12.6864C11.9011 13.7478 10.5955 14.4873 9.16254 14.813C7.72961 15.1387 6.23258 15.0363 4.85737 14.5185C3.48215 14.0007 2.28936 13.0902 1.42715 11.9003C0.564929 10.7104 0.0712751 9.29337 0.00749996 7.82528L0 7.49979L0.00749996 7.1743C0.0913765 5.24348 0.917385 3.41957 2.31327 2.08293C3.70915 0.746291 5.56715 0.000111673 7.49979 1.2523e-08Z" fill="#FFFF71"/>
</svg>
