<svg width="29" height="30" viewBox="0 0 29 30" fill="none" xmlns="http://www.w3.org/2000/svg">
<path d="M14.9972 0C12.2818 0.000498997 9.61743 0.738108 7.28834 2.13415C4.95924 3.53018 3.05279 5.53228 1.77235 7.92687C0.491904 10.3215 -0.114499 13.0187 0.0178232 15.7309C0.150145 18.4432 1.01623 21.0686 2.52369 23.3272C4.03115 25.5857 6.12344 27.3927 8.57737 28.5554C11.0313 29.7181 13.7548 30.1929 16.4574 29.929C19.16 29.6652 21.7403 28.6727 23.923 27.0574C26.1058 25.442 27.8091 23.2645 28.8512 20.757C29.3627 19.527 28.1372 18.291 26.9042 18.792C24.791 19.648 22.4446 19.7363 20.273 19.0416C18.1014 18.3469 16.2419 16.9131 15.0179 14.9895C13.7938 13.0659 13.2827 10.7742 13.5732 8.51273C13.8638 6.25129 14.9377 4.1632 16.6082 2.6115L16.7237 2.4915C17.5502 1.5465 16.8932 0.012 15.5867 0.012H15.1877L15.0857 0.00299996L14.9957 0H14.9972Z" fill="#015AD8"/>
</svg>
