<svg width="5" height="5" viewBox="0.4755859375 0.47528076171875 4.048828125 4.0494384765625" fill="none" xmlns="http://www.w3.org/2000/svg">
<path d="M2.9884 0.390286L3.16249 0.544011L4.45897 1.84049C4.79114 2.17379 4.98399 2.62103 4.99836 3.09137C5.01272 3.56171 4.84751 4.01989 4.5363 4.37283C4.22508 4.72578 3.79119 4.94704 3.32275 4.99166C2.85431 5.03629 2.38645 4.90093 2.01419 4.61309L1.84009 4.45937L0.543613 3.16289C0.224004 2.84384 0.0319768 2.41901 0.00364944 1.96829C-0.024678 1.51758 0.112645 1.07204 0.389793 0.715481C0.66694 0.358921 1.06481 0.115906 1.50858 0.0321421C1.95235 -0.0516216 2.41143 0.0296396 2.79948 0.260639L2.9884 0.390286Z" fill="#FFFF71"/>
</svg>
