<svg width="5" height="5" viewBox="0.475921630859375 0.47613525390625 4.04815673828125 4.0477294921875" fill="none" xmlns="http://www.w3.org/2000/svg">
<path d="M4.45741 0.542443C4.7764 0.861463 4.96803 1.28592 4.99634 1.73617C5.02465 2.18642 4.8877 2.63153 4.61119 2.988L4.45741 3.16215L3.16053 4.45904C2.82712 4.79132 2.37974 4.98423 1.90925 4.9986C1.43876 5.01296 0.980437 4.84771 0.627377 4.53639C0.274317 4.22508 0.052992 3.79105 0.00835393 3.32246C-0.0362842 2.85387 0.0991116 2.38586 0.387042 2.01348L0.540816 1.83933L1.8377 0.542443C2.18513 0.195116 2.65629 0 3.14756 0C3.63883 0 4.10998 0.195116 4.45741 0.542443Z" fill="#FFFF71"/>
</svg>
