<svg width="5" height="5" viewBox="0.4766845703125 0.47637939453125 4.046630859375 4.0472412109375" fill="none" xmlns="http://www.w3.org/2000/svg">
<path d="M2.98732 0.387794L3.16151 0.541603L4.45869 1.83878C4.79104 2.17226 4.984 2.61975 4.99837 3.09035C5.01274 3.56094 4.84745 4.01937 4.53606 4.37251C4.22467 4.72565 3.79055 4.94702 3.32185 4.99167C2.85316 5.03632 2.38504 4.90089 2.01258 4.6129L1.83839 4.45909L0.541207 3.16191C0.222637 2.84258 0.0314742 2.41802 0.00355528 1.96782C-0.0243636 1.51762 0.112878 1.0727 0.389552 0.716452C0.666226 0.360208 1.06334 0.117107 1.50644 0.0327219C1.94953 -0.0516632 2.4082 0.0284615 2.79645 0.258076L2.98732 0.387794Z" fill="#FFFF71"/>
</svg>
